<svg width="1200" height="630" viewBox="0 0 1200 630" fill="none" xmlns="http://www.w3.org/2000/svg">
  <!-- Background -->
  <rect width="1200" height="630" fill="#0c0c0c"/>
  
  <!-- Subtle grid texture -->
  <line x1="0" y1="105" x2="1200" y2="105" stroke="rgba(240,236,229,0.03)"/>
  <line x1="0" y1="210" x2="1200" y2="210" stroke="rgba(240,236,229,0.03)"/>
  <line x1="0" y1="315" x2="1200" y2="315" stroke="rgba(240,236,229,0.03)"/>
  <line x1="0" y1="420" x2="1200" y2="420" stroke="rgba(240,236,229,0.03)"/>
  <line x1="0" y1="525" x2="1200" y2="525" stroke="rgba(240,236,229,0.03)"/>
  <line x1="200" y1="0" x2="200" y2="630" stroke="rgba(240,236,229,0.03)"/>
  <line x1="400" y1="0" x2="400" y2="630" stroke="rgba(240,236,229,0.03)"/>
  <line x1="600" y1="0" x2="600" y2="630" stroke="rgba(240,236,229,0.03)"/>
  <line x1="800" y1="0" x2="800" y2="630" stroke="rgba(240,236,229,0.03)"/>
  <line x1="1000" y1="0" x2="1000" y2="630" stroke="rgba(240,236,229,0.03)"/>

  <!-- Fire accent line left -->
  <rect x="0" y="0" width="4" height="630" fill="#c85a1e" opacity="0.6"/>

  <!-- OG badge -->
  <rect x="80" y="80" width="56" height="56" fill="#c85a1e"/>
  <text x="108" y="116" text-anchor="middle" font-family="Arial Black, sans-serif" font-weight="900" font-size="20" fill="white" letter-spacing="1">OG</text>

  <!-- Logo -->
  <text x="156" y="122" font-family="Arial Black, sans-serif" font-weight="900" font-size="36" fill="#f0ece5" letter-spacing="3">OFFSITE</text>
  <text x="408" y="122" font-family="Arial Black, sans-serif" font-weight="900" font-size="36" fill="#c85a1e" letter-spacing="3">.</text>
  <text x="426" y="122" font-family="Arial Black, sans-serif" font-weight="900" font-size="36" fill="#f0ece5" letter-spacing="3">GROWTH</text>

  <!-- Divider -->
  <rect x="80" y="170" width="60" height="2" fill="#c85a1e" opacity="0.6"/>

  <!-- Main headline -->
  <text x="80" y="290" font-family="Arial Black, sans-serif" font-weight="900" font-size="88" fill="#f0ece5" letter-spacing="-1">YOU RUN THE</text>
  <text x="80" y="390" font-family="Arial Black, sans-serif" font-weight="900" font-size="88" fill="#f0ece5" letter-spacing="-1">JOBSITE. WE KEEP</text>
  <text x="80" y="490" font-family="Arial Black, sans-serif" font-weight="900" font-size="88" fill="#c85a1e" letter-spacing="-1">YOUR PHONE RINGING.</text>

  <!-- Bottom tagline -->
  <text x="80" y="570" font-family="Arial, sans-serif" font-weight="400" font-size="22" fill="rgba(240,236,229,0.45)" letter-spacing="2">MARKETING PARTNER FOR TRADES &amp; CONSTRUCTION  ·  OFFSITE-GROWTH.COM</text>
</svg>
